<svg width="71" height="42" viewBox="0 0 71 42" xmlns="http://www.w3.org/2000/svg"><title>offering-left-hand</title><g fill="#E81C3B" fill-rule="evenodd"><path d="M12.637 29.073a1.602 1.602 0 0 0 0 3.202c.883 0 1.602-.718 1.602-1.6 0-.884-.719-1.602-1.602-1.602z"/><path d="M70.373 21.18c0-2.35-1.87-4.27-4.199-4.354a4.362 4.362 0 0 0-4.156-5.666H38.75c2.336-1.112 4.992-1.763 7.945-1.942a4.327 4.327 0 0 0 2.998-1.46 4.328 4.328 0 0 0 1.087-3.152 4.329 4.329 0 0 0-1.46-2.998A4.325 4.325 0 0 0 46.167.521c-10.729.65-18.93 5.935-23.778 15.302h-3.071v-3.139c0-.842-.683-1.525-1.525-1.525H9.008V9.801c0-.843-.683-1.525-1.526-1.525H2.025a1.525 1.525 0 1 0 0 3.05h3.932v26.703H2.025a1.525 1.525 0 1 0 0 3.05h5.457c.843 0 1.526-.683 1.526-1.525v-1.359h8.785c.842 0 1.525-.682 1.525-1.525V32.2h3.269c2.435 2.934 6.115 4.664 9.998 4.664H58.02a4.362 4.362 0 0 0 4.156-5.666 4.362 4.362 0 0 0 3.997-5.664 4.362 4.362 0 0 0 4.199-4.353zM16.268 35.146h-7.26V14.21h7.26v20.936zm49.748-12.66H46.032a1.525 1.525 0 1 0 0 3.05H62.02c.72 0 1.306.587 1.306 1.307s-.586 1.307-1.306 1.307H43.273a1.525 1.525 0 1 0 0 3.05h14.748c.72 0 1.307.586 1.307 1.306 0 .72-.586 1.307-1.307 1.307H32.585c-3.228 0-6.151-1.471-8.02-4.037a1.525 1.525 0 0 0-1.233-.627h-4.014V18.874h4.013c.586 0 1.12-.335 1.374-.862C28.98 9.16 36.465 4.165 46.35 3.566c.35-.022.684.094.945.326.262.231.417.55.438.899.021.348-.094.684-.326.945-.231.262-.55.417-.899.438-5.52.335-10.17 2.14-13.826 5.368a1.525 1.525 0 0 0 1.01 2.668h5.249c-.735 4.68-4.793 8.273-9.676 8.273a1.525 1.525 0 1 0 0 3.05c6.567 0 11.995-4.955 12.752-11.323h20c.72 0 1.307.586 1.307 1.307 0 .72-.586 1.306-1.307 1.306H44.653a1.525 1.525 0 1 0 0 3.05h21.363a1.308 1.308 0 0 1 0 2.613z"/></g></svg>