<svg width="70" height="60" viewBox="0 0 70 60" xmlns="http://www.w3.org/2000/svg"><title>networking-group</title><path d="M34.924 14.12a6.804 6.804 0 0 0 6.796-6.797A6.804 6.804 0 0 0 34.924.527a6.804 6.804 0 0 0-6.796 6.796 6.804 6.804 0 0 0 6.796 6.797zm0-10.195a3.402 3.402 0 0 1 3.398 3.398 3.402 3.402 0 0 1-3.398 3.399 3.402 3.402 0 0 1-3.398-3.399 3.402 3.402 0 0 1 3.398-3.398zM24.73 29.41a1.7 1.7 0 0 0 1.699-1.698c0-4.684 3.81-8.495 8.495-8.495 4.684 0 8.495 3.81 8.495 8.495a1.7 1.7 0 0 0 3.398 0c0-6.558-5.335-11.893-11.893-11.893-6.558 0-11.893 5.335-11.893 11.893 0 .938.76 1.699 1.699 1.699zM11.893 43.815a6.804 6.804 0 0 0 6.796-6.796 6.804 6.804 0 0 0-6.796-6.796 6.804 6.804 0 0 0-6.796 6.796 6.804 6.804 0 0 0 6.796 6.796zm0-10.194a3.402 3.402 0 0 1 3.398 3.398 3.402 3.402 0 0 1-3.398 3.398 3.402 3.402 0 0 1-3.398-3.398 3.402 3.402 0 0 1 3.398-3.398zm0 11.893C5.335 45.514 0 50.85 0 57.407a1.7 1.7 0 0 0 3.398 0c0-4.684 3.811-8.495 8.495-8.495 4.684 0 8.495 3.811 8.495 8.495a1.7 1.7 0 0 0 3.398 0c0-6.557-5.335-11.893-11.893-11.893zm46.061-1.699a6.804 6.804 0 0 0 6.796-6.796 6.804 6.804 0 0 0-6.796-6.796 6.804 6.804 0 0 0-6.796 6.796 6.804 6.804 0 0 0 6.796 6.796zm0-10.194a3.402 3.402 0 0 1 3.398 3.398 3.402 3.402 0 0 1-3.398 3.398 3.402 3.402 0 0 1-3.398-3.398 3.402 3.402 0 0 1 3.398-3.398zm0 11.893c-6.558 0-11.893 5.336-11.893 11.893a1.7 1.7 0 0 0 3.398 0c0-4.684 3.811-8.495 8.495-8.495 4.684 0 8.495 3.811 8.495 8.495a1.7 1.7 0 0 0 3.398 0c0-6.557-5.335-11.893-11.893-11.893z" fill="#E81C3B" fill-rule="evenodd"/></svg>