<svg width="35" height="35" viewBox="0 0 35 35" xmlns="http://www.w3.org/2000/svg"><title>google</title><g fill="none" fill-rule="evenodd"><circle fill="#CF4C3C" cx="17.5" cy="17.5" r="17.5"/><path d="M25.496 14.732l-2.497 3.004-4.7-4.89h-6.495l-2.628 2.847v6.146l12.62 12.629a17.535 17.535 0 0 0 12.231-11.203l-8.531-8.533z" fill="#AD3228"/><path d="M14.512 18.822h3.13a3.983 3.983 0 0 1-3.78 2.654 3.988 3.988 0 0 1-3.943-3.818 3.98 3.98 0 0 1 3.973-4.135 3.96 3.96 0 0 1 2.67 1.033.431.431 0 0 0 .586-.003l1.15-1.081a.43.43 0 0 0 0-.625 6.384 6.384 0 0 0-4.278-1.755c-3.534-.07-6.512 2.828-6.537 6.362a6.41 6.41 0 0 0 12.808.407c.005-.043.008-1.471.008-1.471h-5.787a.43.43 0 0 0-.43.429v1.574c0 .237.193.43.43.43z" fill="#FFF"/><path d="M25.603 16.533v-1.538a.376.376 0 0 0-.377-.377h-1.294a.376.376 0 0 0-.376.377v1.538h-1.538a.377.377 0 0 0-.376.376v1.294c0 .208.168.376.376.376h1.538v1.538c0 .208.168.377.376.377h1.294a.376.376 0 0 0 .377-.377V18.58h1.538a.377.377 0 0 0 .376-.376V16.91a.376.376 0 0 0-.376-.376h-1.538z" fill="#D1D1D1"/></g></svg>