<svg width="35" height="35" viewBox="0 0 35 35" xmlns="http://www.w3.org/2000/svg"><title>twitter</title><g fill="none" fill-rule="evenodd"><circle fill="#65A2D9" cx="17.5" cy="17.5" r="17.5"/><path d="M26.866 9.524c-1.825 1.584-3.64 2.972-5.124 4.912-3.649 4.4-8.108 10.644-14.176 9.713l10.842 10.828c9.191-.47 16.509-8.032 16.59-17.32l-8.132-8.133z" fill="#3A7CA5"/><path d="M27.198 11.106a7.92 7.92 0 0 1-1.381.466 4.305 4.305 0 0 0 1.137-1.81.226.226 0 0 0-.33-.263 7.99 7.99 0 0 1-2.112.872.56.56 0 0 1-.502-.125 4.319 4.319 0 0 0-2.858-1.078c-.456 0-.916.071-1.368.211a4.185 4.185 0 0 0-2.82 3.015 4.608 4.608 0 0 0-.103 1.59.155.155 0 0 1-.039.122.16.16 0 0 1-.134.053A11.325 11.325 0 0 1 8.904 10a.226.226 0 0 0-.37.029 4.318 4.318 0 0 0-.585 2.172c0 1.17.47 2.274 1.287 3.078a3.872 3.872 0 0 1-.985-.381.226.226 0 0 0-.335.195 4.325 4.325 0 0 0 2.522 3.984h-.092a3.81 3.81 0 0 1-.728-.069.226.226 0 0 0-.257.291 4.328 4.328 0 0 0 3.42 2.944A7.97 7.97 0 0 1 8.315 23.6h-.5a.33.33 0 0 0-.323.25.342.342 0 0 0 .164.377 11.854 11.854 0 0 0 5.957 1.606c1.83 0 3.544-.363 5.09-1.08a11.24 11.24 0 0 0 3.725-2.79 12.235 12.235 0 0 0 2.28-3.82c.508-1.355.776-2.8.776-4.18v-.067c0-.221.1-.43.275-.572a8.54 8.54 0 0 0 1.717-1.885c.126-.188-.072-.423-.279-.332z" fill="#FFF"/><path d="M27.198 11.106a7.923 7.923 0 0 1-1.381.466 4.306 4.306 0 0 0 1.137-1.81.226.226 0 0 0-.33-.263 7.99 7.99 0 0 1-2.112.872.56.56 0 0 1-.502-.125 4.319 4.319 0 0 0-2.858-1.078c-.456 0-.916.071-1.368.211a4.18 4.18 0 0 0-2.323 1.815V25.24a11.24 11.24 0 0 0 4.969-3.279 12.236 12.236 0 0 0 2.28-3.82c.507-1.354.775-2.8.775-4.18v-.066c0-.221.1-.43.275-.572a8.54 8.54 0 0 0 1.718-1.885c.125-.188-.073-.423-.28-.332z" fill="#D1D1D1"/></g></svg>