<svg width="71" height="51" viewBox="0 0 71 51" xmlns="http://www.w3.org/2000/svg"><title>big-envelope</title><path d="M70.5 47.432V3.167a3.15 3.15 0 0 0-.828-2.127l-.025-.028A3.156 3.156 0 0 0 67.333 0H3.667c-.912 0-1.734.39-2.312 1.01l-.027.03A3.151 3.151 0 0 0 .5 3.167v44.265c0 .82.316 1.565.828 2.128l.023.025A3.156 3.156 0 0 0 3.667 50.6h63.666c.913 0 1.736-.392 2.314-1.013l.025-.027a3.15 3.15 0 0 0 .828-2.128zM16.027 34.495a1.584 1.584 0 0 0-2.24.045L3.667 45.08V5.52L22.66 25.3l-5.13 5.343a1.584 1.584 0 0 0 2.284 2.194l5.042-5.25 7.308 7.611a4.59 4.59 0 0 0 3.336 1.43 4.59 4.59 0 0 0 3.336-1.43l7.308-7.612L65.2 47.432H5.8l10.272-10.698a1.584 1.584 0 0 0-.045-2.24zm20.524-1.49a1.45 1.45 0 0 1-1.051.455 1.45 1.45 0 0 1-1.051-.456L5.799 3.167H65.2L36.551 33.004zm11.79-7.705L67.332 5.52v39.56L48.34 25.3z" fill="#E81C3B" fill-rule="evenodd"/></svg>