<svg width="35" height="44" viewBox="0 0 35 44" xmlns="http://www.w3.org/2000/svg"><title>Group</title><g fill-rule="evenodd"><path d="M21.231 19.874c-.914-1.02-1.817-2.159-2.63-3.183-.384-.485-.751-.946-1.094-1.366l-.025-.03c.502-1.432.79-2.604.854-3.483.162-2.242-.088-3.686-.765-4.413a1.683 1.683 0 0 0-1.79-.447c-.463.155-1.09.57-1.448 1.668-.534 1.636-.275 4.534 1.242 6.93-.677 1.774-1.62 3.812-2.663 5.752-1.986.696-3.569 1.611-4.705 2.722-1.484 1.448-2.087 2.886-1.656 3.944.266.655.881 1.046 1.645 1.046.532 0 1.107-.192 1.663-.555 1.406-.918 3.24-3.98 4.225-5.753 2.036-.636 4.047-.896 5.069-.995.462-.045.921-.08 1.363-.105 1.788 1.889 3.25 2.885 4.598 3.133.272.05.543.076.808.076 1.098 0 2.006-.438 2.429-1.172.32-.554.313-1.2-.018-1.774-.748-1.294-3.004-2.007-6.354-2.007-.241 0-.49.004-.748.012zM8.927 27.035c-.266.174-.54.277-.732.277a.33.33 0 0 1-.075-.007c-.034-.17.087-.903 1.276-2.065.558-.545 1.263-1.043 2.1-1.483-1.055 1.696-2.004 2.91-2.57 3.278zM15.95 9.15c.124-.38.277-.552.373-.584l.006-.002c.093.104.486.699.31 3.127-.031.423-.134.958-.308 1.594-.567-1.462-.723-3.087-.381-4.135zm3.038 10.87c-.905.087-2.283.266-3.821.63a53.761 53.761 0 0 0 1.61-3.517l.49.617c.556.701 1.181 1.49 1.83 2.26l-.109.01zm7.87 2.701c.025.044.025.062.019.073-.072.124-.395.321-.958.321-.157 0-.324-.016-.496-.048-.702-.13-1.52-.615-2.497-1.48 2.648.126 3.718.764 3.932 1.134z"/><path d="M24.837 0H2.826A2.445 2.445 0 0 0 .38 2.446v38.858a2.446 2.446 0 0 0 2.445 2.446h29.348a2.444 2.444 0 0 0 2.445-2.446V9.782L24.837 0zm0 3.458l6.325 6.325h-6.325V3.458zm7.337 37.846H2.826V2.446H22.39v7.337a2.445 2.445 0 0 0 2.445 2.445h7.338v29.076z"/><path d="M13.46 31.284c-.2-.177-.44-.305-.712-.38-.269-.077-.654-.116-1.145-.116H9.975c-.31 0-.543.07-.694.212-.152.143-.23.375-.23.687v4.828c0 .281.069.5.206.652a.71.71 0 0 0 .552.234c.217 0 .4-.079.542-.235.14-.154.212-.376.212-.66v-1.65h1.04c.804 0 1.421-.176 1.834-.522.42-.351.633-.87.633-1.544 0-.313-.051-.6-.154-.853a1.725 1.725 0 0 0-.457-.653zm-1.053 2.019a.751.751 0 0 1-.397.263 2.457 2.457 0 0 1-.714.089h-.733v-1.671h.733c.66 0 .929.131 1.035.239.142.152.211.345.211.592 0 .203-.045.367-.134.488zm7.066-1.917a2.164 2.164 0 0 0-.887-.475 4.613 4.613 0 0 0-1.137-.124h-1.653c-.306 0-.535.074-.68.22-.145.145-.22.374-.22.68v4.592c0 .215.02.388.059.526.044.158.14.28.283.366.136.083.328.122.583.122h1.654c.292 0 .56-.018.795-.056a2.69 2.69 0 0 0 .674-.202 2.3 2.3 0 0 0 .583-.385c.222-.204.407-.439.55-.699.141-.259.248-.553.315-.873a5.13 5.13 0 0 0 .101-1.055c0-1.17-.344-2.058-1.02-2.637zm-1.105 4.393a.913.913 0 0 1-.293.169 1.43 1.43 0 0 1-.343.079c-.115.01-.278.016-.484.016h-.84v-4.008h.716c.375 0 .696.04.956.12.243.075.452.254.621.535.174.287.263.733.263 1.326 0 .835-.2 1.428-.596 1.763zm6.861-4.991h-2.99c-.2 0-.362.03-.494.09a.624.624 0 0 0-.314.311 1.166 1.166 0 0 0-.092.498v4.82c0 .29.07.513.21.663a.716.716 0 0 0 .548.231.718.718 0 0 0 .545-.229c.139-.15.21-.374.21-.666v-1.942h1.967c.22 0 .393-.053.512-.158a.556.556 0 0 0 .186-.437.564.564 0 0 0-.182-.438c-.118-.107-.292-.162-.516-.162H22.85v-1.36h2.378c.233 0 .412-.055.533-.166a.577.577 0 0 0 .187-.446.577.577 0 0 0-.187-.443c-.123-.11-.301-.166-.533-.166z"/></g></svg>