<svg width="35" height="35" viewBox="0 0 35 35" xmlns="http://www.w3.org/2000/svg"><title>facebook</title><g fill="none" fill-rule="evenodd"><circle fill="#4E598F" cx="17.466" cy="17.466" r="17.466"/><path d="M34.904 16.49l-8.226-8.229c-.137.041-.477-.117-.626-.087-3.529.588-6.94 0-10.35.941-1.647.47-1.765 2.47-2.353 3.764-.823 2.352-.705 4.94-1.764 7.174-.706 1.53-2.352 2.47-2.94 4.235-.196.735-.185 1.663-.407 2.366l8.254 8.25c.323.018.647.028.974.028 9.646 0 17.466-7.82 17.466-17.466 0-.328-.01-.653-.028-.976z" fill="#364270"/><g fill="#FFF"><path d="M24.769 7.468H10.163a2.694 2.694 0 0 0-2.694 2.695v14.606a2.694 2.694 0 0 0 2.694 2.694h7.203l.013-7.145h-1.857a.438.438 0 0 1-.437-.436l-.01-2.303a.438.438 0 0 1 .439-.44h1.853v-2.225c0-2.583 1.577-3.989 3.88-3.989h1.891c.242 0 .438.196.438.438v1.942a.438.438 0 0 1-.438.438h-1.16c-1.253 0-1.495.596-1.495 1.47v1.926h2.753c.262 0 .466.23.435.49l-.273 2.303a.438.438 0 0 1-.435.386h-2.468l-.012 7.146h4.286a2.694 2.694 0 0 0 2.694-2.695V10.163a2.694 2.694 0 0 0-2.694-2.695z"/><path d="M17.48 27.463l.092-7.145h-.224v7.145z"/></g><path d="M24.769 7.468h-7.42v9.67h.018v-2.224c0-2.583 1.577-3.99 3.88-3.99h1.891c.242 0 .438.197.438.439v1.942a.438.438 0 0 1-.438.438h-1.16c-1.253 0-1.495.596-1.495 1.47v1.926h2.753c.262 0 .466.23.435.49l-.273 2.303a.438.438 0 0 1-.435.386h-2.468l-.012 7.145h4.286a2.694 2.694 0 0 0 2.694-2.694V10.163a2.694 2.694 0 0 0-2.694-2.695z" fill="#D1D1D1"/></g></svg>